####
#
#	OBJ File Generated by LightWave3D
#	LightWave3D OBJ Export v2.3
#
####
o barrier_advertising.obj
mtllib barrier_advertising.mtl
g default
v 9.975 2 -20.0833
v 9.975 0 -20.0833
v 9.925 2 -20.1
v 9.925 0 -20.1
v 10 0 -20.0375
v 10 2 -20.0375
v -9.975 2 -20.0833
v -9.975 0 -20.0833
v -9.925 2 -20.1
v -9.925 0 -20.1
v -10 2 -20.0375
v -10 0 -20.0375
v 9.975 2 -19.9167
v 9.975 0 -19.9167
v 9.925 2 -19.9
v 9.925 0 -19.9
v 10 2 -19.9625
v 10 0 -19.9625
v -9.975 0 -19.9167
v -9.975 2 -19.9167
v -9.925 2 -19.9
v -9.925 0 -19.9
v -10 2 -19.9625
v -10 0 -19.9625
v -19.9167 2 -19.975
v -19.9167 0 -19.975
v -19.9 2 -19.925
v -19.9 0 -19.925
v -19.9625 2 -20
v -19.9625 0 -20
v -20.0833 2 -19.975
v -20.0833 0 -19.975
v -20.1 2 -19.925
v -20.1 0 -19.925
v -20.0375 2 -20
v -20.0375 0 -20
v -19.9167 2 19.975
v -19.9167 0 19.975
v -19.9 2 19.925
v -19.9 0 19.925
v -20.0833 2 19.975
v -20.0833 0 19.975
v -20.1 2 19.925
v -20.1 0 19.925
v -19.9625 0 20
v -19.9625 2 20
v -20.0375 2 20
v -20.0375 0 20
v -9.975 2 20.0833
v -9.975 0 20.0833
v -9.925 2 20.1
v -9.925 0 20.1
v -10 0 20.0375
v -10 2 20.0375
v 9.975 2 20.0833
v 9.975 0 20.0833
v 9.925 2 20.1
v 9.925 0 20.1
v 10 2 20.0375
v 10 0 20.0375
v -9.975 2 19.9167
v -9.975 0 19.9167
v -9.925 2 19.9
v -9.925 0 19.9
v -10 2 19.9625
v -10 0 19.9625
v 9.975 0 19.9167
v 9.975 2 19.9167
v 9.925 2 19.9
v 9.925 0 19.9
v 10 2 19.9625
v 10 0 19.9625
v 19.9167 2 19.975
v 19.9167 0 19.975
v 19.9 2 19.925
v 19.9 0 19.925
v 19.9625 2 20
v 19.9625 0 20
v 20.0833 2 19.975
v 20.0833 0 19.975
v 20.1 2 19.925
v 20.1 0 19.925
v 20.0375 2 20
v 20.0375 0 20
v 19.9167 2 -19.975
v 19.9167 0 -19.975
v 19.9 2 -19.925
v 19.9 0 -19.925
v 20.0833 2 -19.975
v 20.0833 0 -19.975
v 20.1 2 -19.925
v 20.1 0 -19.925
v 19.9625 0 -20
v 19.9625 2 -20
v 20.0375 2 -20
v 20.0375 0 -20
vt 0 -2.14577e-008
vt 0 0
vt 0 1
vt 0.000625038 0
vt 0.000625038 1
vt 0.000687489 -2.14577e-008
vt 0.000687489 1
vt 0.00187502 0
vt 0.00187502 1
vt 0.00206249 -2.14577e-008
vt 0.00206249 1
vt 0.547938 -2.14577e-008
vt 0.547938 1
vt 0.549313 -2.14577e-008
vt 0.549313 1
vt 0.55 -2.14577e-008
vt 0.55 1
vt 0.998125 0
vt 0.998125 1
vt 0.999375 0
vt 0.999375 1
vt 1 0
vt 1 1
vn 0.861114 -0.458552 -0.219575
vn 0.861114 0.458552 0.219575
vn 0.861114 -0.458552 0.219575
vn 0.861114 0.458552 -0.219575
vn 0.861114 0.458552 0.219575
vn 0.861114 -0.458552 -0.219575
vn -0.933145 0.324245 0.155263
vn -0.933145 -0.324245 -0.155263
vn -0.779096 -0.565423 0.27075
vn -0.933145 0.324245 0.155263
vn -0.779096 0.565423 -0.27075
vn -0.933145 -0.324245 -0.155263
vn -0.175409 -0.83205 -0.526236
vn 0.12754 -0.604988 0.785954
vn -0.0880525 -0.835354 0.542614
vn -0.175409 -0.83205 -0.526236
vn 0.0999983 -0.948683 -0.300001
vn 0.12754 -0.604988 0.785954
vn -0.142893 0.451875 0.880563
vn -0.0880525 -0.835354 0.542614
vn 0.12754 -0.604988 0.785954
vn 0.0708916 0.896731 0.436862
vn -0.142893 0.451875 0.880563
vn 0.12754 -0.604988 0.785954
vn -0.0766952 0.970143 -0.23009
vn -0.142893 0.451875 0.880563
vn 0.0708916 0.896731 0.436862
vn 0.223603 0.707107 -0.670822
vn -0.0766952 0.970143 -0.23009
vn 0.0708916 0.896731 0.436862
vn -0.42359 0.817732 0.389726
vn -0.933145 0.324245 0.155263
vn -0.779096 -0.565423 0.27075
vn -0.42359 0.817732 0.389726
vn -0.779096 -0.565423 0.27075
vn -0.437321 -0.579101 0.688035
vn -0.779096 -0.565423 0.27075
vn -0.42359 -0.817732 -0.389726
vn -0.437321 -0.579101 0.688035
vn -0.933145 -0.324245 -0.155263
vn -0.42359 -0.817732 -0.389726
vn -0.779096 -0.565423 0.27075
vn -0.779096 0.565423 -0.27075
vn -0.42359 -0.817732 -0.389726
vn -0.933145 -0.324245 -0.155263
vn -0.779096 0.565423 -0.27075
vn -0.437321 0.579101 -0.688035
vn -0.42359 -0.817732 -0.389726
vn -0.437321 0.579101 -0.688035
vn -0.779096 0.565423 -0.27075
vn -0.42359 0.817732 0.389726
vn -0.779096 0.565423 -0.27075
vn -0.933145 0.324245 0.155263
vn -0.42359 0.817732 0.389726
vn -0.142893 0.451875 0.880563
vn -0.437321 -0.579101 0.688035
vn -0.0880525 -0.835354 0.542614
vn -0.142893 0.451875 0.880563
vn -0.42359 0.817732 0.389726
vn -0.437321 -0.579101 0.688035
vn -0.42359 -0.817732 -0.389726
vn -0.175409 -0.83205 -0.526236
vn -0.0880525 -0.835354 0.542614
vn -0.437321 -0.579101 0.688035
vn -0.42359 -0.817732 -0.389726
vn -0.0880525 -0.835354 0.542614
vn -0.437321 0.579101 -0.688035
vn -0.0766952 0.970143 -0.23009
vn -0.175409 -0.83205 -0.526236
vn -0.437321 0.579101 -0.688035
vn -0.175409 -0.83205 -0.526236
vn -0.42359 -0.817732 -0.389726
vn -0.0766952 0.970143 -0.23009
vn -0.42359 0.817732 0.389726
vn -0.142893 0.451875 0.880563
vn -0.0766952 0.970143 -0.23009
vn -0.437321 0.579101 -0.688035
vn -0.42359 0.817732 0.389726
vn 0.0999983 -0.948683 -0.300001
vn 0.42359 -0.817732 0.389726
vn 0.12754 -0.604988 0.785954
vn 0.0999983 -0.948683 -0.300001
vn 0.437321 -0.579101 -0.688035
vn 0.42359 -0.817732 0.389726
vn 0.437321 0.579101 0.688035
vn 0.0708916 0.896731 0.436862
vn 0.12754 -0.604988 0.785954
vn 0.42359 -0.817732 0.389726
vn 0.437321 0.579101 0.688035
vn 0.12754 -0.604988 0.785954
vn 0.0999983 -0.948683 -0.300001
vn 0.223603 0.707107 -0.670822
vn 0.437321 -0.579101 -0.688035
vn 0.223603 0.707107 -0.670822
vn 0.42359 0.817732 -0.389726
vn 0.437321 -0.579101 -0.688035
vn 0.42359 0.817732 -0.389726
vn 0.223603 0.707107 -0.670822
vn 0.0708916 0.896731 0.436862
vn 0.437321 0.579101 0.688035
vn 0.42359 0.817732 -0.389726
vn 0.0708916 0.896731 0.436862
vn 0.437321 -0.579101 -0.688035
vn 0.861114 -0.458552 -0.219575
vn 0.42359 -0.817732 0.389726
vn 0.861114 -0.458552 -0.219575
vn 0.861114 -0.458552 0.219575
vn 0.42359 -0.817732 0.389726
vn 0.861114 -0.458552 0.219575
vn 0.861114 0.458552 0.219575
vn 0.42359 -0.817732 0.389726
vn 0.861114 0.458552 0.219575
vn 0.437321 0.579101 0.688035
vn 0.42359 -0.817732 0.389726
vn 0.42359 0.817732 -0.389726
vn 0.861114 0.458552 -0.219575
vn 0.861114 -0.458552 -0.219575
vn 0.437321 -0.579101 -0.688035
vn 0.42359 0.817732 -0.389726
vn 0.861114 -0.458552 -0.219575
vn 0.861114 0.458552 0.219575
vn 0.42359 0.817732 -0.389726
vn 0.437321 0.579101 0.688035
vn 0.861114 0.458552 -0.219575
vn 0.42359 0.817732 -0.389726
vn 0.861114 0.458552 0.219575
vn -0.219575 -0.458552 -0.861114
vn -0.219575 0.458552 -0.861114
vn 0.219575 -0.458552 -0.861114
vn -0.219575 0.458552 -0.861114
vn 0.219575 0.458552 -0.861114
vn 0.219575 -0.458552 -0.861114
vn -0.155273 0.324246 0.933143
vn -0.270766 -0.565425 0.77909
vn 0.155273 -0.324246 0.933143
vn 0.270766 0.565425 0.77909
vn -0.155273 0.324246 0.933143
vn 0.155273 -0.324246 0.933143
vn -0.3 -0.948683 0.1
vn -0.526237 -0.83205 -0.175406
vn 0.686843 -0.711173 0.149929
vn -0.526237 -0.83205 -0.175406
vn 0.699009 -0.711173 -0.0749617
vn 0.686843 -0.711173 0.149929
vn 0.699009 -0.711173 -0.0749617
vn 0.592173 0.803305 0.0635068
vn 0.686843 -0.711173 0.149929
vn 0.810007 0.559132 -0.176807
vn 0.592173 0.803305 0.0635068
vn 0.699009 -0.711173 -0.0749617
vn -0.23009 0.970143 -0.0766939
vn -0.67082 0.707107 0.223607
vn 0.592173 0.803305 0.0635068
vn 0.810007 0.559132 -0.176807
vn -0.23009 0.970143 -0.0766939
vn 0.592173 0.803305 0.0635068
vn -0.155273 0.324246 0.933143
vn -0.389736 0.81773 0.423584
vn -0.270766 -0.565425 0.77909
vn -0.389736 0.81773 0.423584
vn -0.688039 -0.579099 0.437318
vn -0.270766 -0.565425 0.77909
vn -0.688039 -0.579099 0.437318
vn 0.389736 -0.81773 0.423584
vn -0.270766 -0.565425 0.77909
vn -0.270766 -0.565425 0.77909
vn 0.389736 -0.81773 0.423584
vn 0.155273 -0.324246 0.933143
vn 0.389736 -0.81773 0.423584
vn 0.270766 0.565425 0.77909
vn 0.155273 -0.324246 0.933143
vn 0.688039 0.579099 0.437318
vn 0.270766 0.565425 0.77909
vn 0.389736 -0.81773 0.423584
vn 0.688039 0.579099 0.437318
vn -0.389736 0.81773 0.423584
vn 0.270766 0.565425 0.77909
vn -0.389736 0.81773 0.423584
vn -0.155273 0.324246 0.933143
vn 0.270766 0.565425 0.77909
vn -0.67082 0.707107 0.223607
vn -0.3 -0.948683 0.1
vn -0.688039 -0.579099 0.437318
vn -0.389736 0.81773 0.423584
vn -0.67082 0.707107 0.223607
vn -0.688039 -0.579099 0.437318
vn -0.3 -0.948683 0.1
vn 0.686843 -0.711173 0.149929
vn 0.389736 -0.81773 0.423584
vn -0.688039 -0.579099 0.437318
vn -0.3 -0.948683 0.1
vn 0.389736 -0.81773 0.423584
vn 0.592173 0.803305 0.0635068
vn 0.688039 0.579099 0.437318
vn 0.686843 -0.711173 0.149929
vn 0.686843 -0.711173 0.149929
vn 0.688039 0.579099 0.437318
vn 0.389736 -0.81773 0.423584
vn 0.592173 0.803305 0.0635068
vn -0.67082 0.707107 0.223607
vn -0.389736 0.81773 0.423584
vn 0.592173 0.803305 0.0635068
vn -0.389736 0.81773 0.423584
vn 0.688039 0.579099 0.437318
vn -0.526237 -0.83205 -0.175406
vn -0.389726 -0.817732 -0.423589
vn 0.699009 -0.711173 -0.0749617
vn -0.389726 -0.817732 -0.423589
vn 0.688036 -0.579102 -0.437318
vn 0.699009 -0.711173 -0.0749617
vn -0.23009 0.970143 -0.0766939
vn -0.688036 0.579102 -0.437318
vn -0.526237 -0.83205 -0.175406
vn -0.688036 0.579102 -0.437318
vn -0.389726 -0.817732 -0.423589
vn -0.526237 -0.83205 -0.175406
vn 0.688036 -0.579102 -0.437318
vn 0.810007 0.559132 -0.176807
vn 0.699009 -0.711173 -0.0749617
vn 0.389726 0.817732 -0.423589
vn 0.810007 0.559132 -0.176807
vn 0.688036 -0.579102 -0.437318
vn 0.389726 0.817732 -0.423589
vn -0.23009 0.970143 -0.0766939
vn 0.810007 0.559132 -0.176807
vn 0.389726 0.817732 -0.423589
vn -0.688036 0.579102 -0.437318
vn -0.23009 0.970143 -0.0766939
vn -0.389726 -0.817732 -0.423589
vn 0.219575 -0.458552 -0.861114
vn 0.688036 -0.579102 -0.437318
vn -0.219575 -0.458552 -0.861114
vn 0.219575 -0.458552 -0.861114
vn -0.389726 -0.817732 -0.423589
vn -0.219575 0.458552 -0.861114
vn -0.219575 -0.458552 -0.861114
vn -0.389726 -0.817732 -0.423589
vn -0.688036 0.579102 -0.437318
vn -0.219575 0.458552 -0.861114
vn -0.389726 -0.817732 -0.423589
vn 0.219575 0.458552 -0.861114
vn 0.389726 0.817732 -0.423589
vn 0.219575 -0.458552 -0.861114
vn 0.219575 -0.458552 -0.861114
vn 0.389726 0.817732 -0.423589
vn 0.688036 -0.579102 -0.437318
vn -0.219575 0.458552 -0.861114
vn -0.688036 0.579102 -0.437318
vn 0.389726 0.817732 -0.423589
vn 0.219575 0.458552 -0.861114
vn -0.219575 0.458552 -0.861114
vn 0.389726 0.817732 -0.423589
vn -0.861114 0.458552 -0.219575
vn -0.861114 -0.458552 -0.219575
vn -0.861114 -0.458552 0.219575
vn -0.861114 0.458552 0.219575
vn -0.861114 0.458552 -0.219575
vn -0.861114 -0.458552 0.219575
vn 0.779096 -0.565423 -0.27075
vn 0.933145 0.324245 -0.155263
vn 0.933145 -0.324245 0.155263
vn 0.933145 0.324245 -0.155263
vn 0.779096 0.565423 0.27075
vn 0.933145 -0.324245 0.155263
vn -0.12754 -0.604988 -0.785954
vn 0.0880525 -0.835354 -0.542614
vn 0.175409 -0.83205 0.526236
vn -0.12754 -0.604988 -0.785954
vn 0.175409 -0.83205 0.526236
vn -0.0999983 -0.948683 0.300001
vn 0.142893 0.451875 -0.880563
vn 0.0880525 -0.835354 -0.542614
vn -0.12754 -0.604988 -0.785954
vn -0.0708916 0.896731 -0.436862
vn 0.142893 0.451875 -0.880563
vn -0.12754 -0.604988 -0.785954
vn 0.142893 0.451875 -0.880563
vn -0.0708916 0.896731 -0.436862
vn 0.0766952 0.970143 0.23009
vn -0.0708916 0.896731 -0.436862
vn -0.223603 0.707107 0.670822
vn 0.0766952 0.970143 0.23009
vn 0.42359 0.817732 -0.389726
vn 0.933145 0.324245 -0.155263
vn 0.779096 -0.565423 -0.27075
vn 0.437321 -0.579101 -0.688035
vn 0.42359 0.817732 -0.389726
vn 0.779096 -0.565423 -0.27075
vn 0.437321 -0.579101 -0.688035
vn 0.779096 -0.565423 -0.27075
vn 0.42359 -0.817732 0.389726
vn 0.779096 -0.565423 -0.27075
vn 0.933145 -0.324245 0.155263
vn 0.42359 -0.817732 0.389726
vn 0.933145 -0.324245 0.155263
vn 0.779096 0.565423 0.27075
vn 0.42359 -0.817732 0.389726
vn 0.779096 0.565423 0.27075
vn 0.437321 0.579101 0.688035
vn 0.42359 -0.817732 0.389726
vn 0.779096 0.565423 0.27075
vn 0.42359 0.817732 -0.389726
vn 0.437321 0.579101 0.688035
vn 0.933145 0.324245 -0.155263
vn 0.42359 0.817732 -0.389726
vn 0.779096 0.565423 0.27075
vn 0.0880525 -0.835354 -0.542614
vn 0.142893 0.451875 -0.880563
vn 0.437321 -0.579101 -0.688035
vn 0.142893 0.451875 -0.880563
vn 0.42359 0.817732 -0.389726
vn 0.437321 -0.579101 -0.688035
vn 0.0880525 -0.835354 -0.542614
vn 0.42359 -0.817732 0.389726
vn 0.175409 -0.83205 0.526236
vn 0.0880525 -0.835354 -0.542614
vn 0.437321 -0.579101 -0.688035
vn 0.42359 -0.817732 0.389726
vn 0.437321 0.579101 0.688035
vn 0.0766952 0.970143 0.23009
vn 0.175409 -0.83205 0.526236
vn 0.42359 -0.817732 0.389726
vn 0.437321 0.579101 0.688035
vn 0.175409 -0.83205 0.526236
vn 0.42359 0.817732 -0.389726
vn 0.142893 0.451875 -0.880563
vn 0.0766952 0.970143 0.23009
vn 0.437321 0.579101 0.688035
vn 0.42359 0.817732 -0.389726
vn 0.0766952 0.970143 0.23009
vn -0.42359 -0.817732 -0.389726
vn -0.12754 -0.604988 -0.785954
vn -0.0999983 -0.948683 0.300001
vn -0.437321 -0.579101 0.688035
vn -0.42359 -0.817732 -0.389726
vn -0.0999983 -0.948683 0.300001
vn -0.437321 0.579101 -0.688035
vn -0.0708916 0.896731 -0.436862
vn -0.12754 -0.604988 -0.785954
vn -0.437321 0.579101 -0.688035
vn -0.12754 -0.604988 -0.785954
vn -0.42359 -0.817732 -0.389726
vn -0.223603 0.707107 0.670822
vn -0.437321 -0.579101 0.688035
vn -0.0999983 -0.948683 0.300001
vn -0.223603 0.707107 0.670822
vn -0.42359 0.817732 0.389726
vn -0.437321 -0.579101 0.688035
vn -0.0708916 0.896731 -0.436862
vn -0.42359 0.817732 0.389726
vn -0.223603 0.707107 0.670822
vn -0.0708916 0.896731 -0.436862
vn -0.437321 0.579101 -0.688035
vn -0.42359 0.817732 0.389726
vn -0.861114 -0.458552 0.219575
vn -0.42359 -0.817732 -0.389726
vn -0.437321 -0.579101 0.688035
vn -0.861114 -0.458552 -0.219575
vn -0.42359 -0.817732 -0.389726
vn -0.861114 -0.458552 0.219575
vn -0.861114 0.458552 -0.219575
vn -0.42359 -0.817732 -0.389726
vn -0.861114 -0.458552 -0.219575
vn -0.861114 0.458552 -0.219575
vn -0.437321 0.579101 -0.688035
vn -0.42359 -0.817732 -0.389726
vn -0.42359 0.817732 0.389726
vn -0.861114 0.458552 0.219575
vn -0.861114 -0.458552 0.219575
vn -0.42359 0.817732 0.389726
vn -0.861114 -0.458552 0.219575
vn -0.437321 -0.579101 0.688035
vn -0.437321 0.579101 -0.688035
vn -0.861114 0.458552 -0.219575
vn -0.42359 0.817732 0.389726
vn -0.861114 0.458552 -0.219575
vn -0.861114 0.458552 0.219575
vn -0.42359 0.817732 0.389726
vn 0.219575 -0.458552 0.861114
vn 0.219575 0.458552 0.861114
vn -0.219575 -0.458552 0.861114
vn 0.219575 0.458552 0.861114
vn -0.219575 0.458552 0.861114
vn -0.219575 -0.458552 0.861114
vn 0.155273 0.324246 -0.933143
vn 0.270766 -0.565425 -0.77909
vn -0.155273 -0.324246 -0.933143
vn -0.270766 0.565425 -0.77909
vn 0.155273 0.324246 -0.933143
vn -0.155273 -0.324246 -0.933143
vn -0.686843 -0.711173 -0.149929
vn 0.3 -0.948683 -0.1
vn 0.526237 -0.83205 0.175406
vn -0.686843 -0.711173 -0.149929
vn 0.526237 -0.83205 0.175406
vn -0.699009 -0.711173 0.0749617
vn -0.592173 0.803305 -0.0635068
vn -0.686843 -0.711173 -0.149929
vn -0.699009 -0.711173 0.0749617
vn -0.810007 0.559132 0.176807
vn -0.592173 0.803305 -0.0635068
vn -0.699009 -0.711173 0.0749617
vn 0.67082 0.707107 -0.223607
vn -0.592173 0.803305 -0.0635068
vn 0.23009 0.970143 0.0766939
vn 0.23009 0.970143 0.0766939
vn -0.592173 0.803305 -0.0635068
vn -0.810007 0.559132 0.176807
vn 0.155273 0.324246 -0.933143
vn 0.389736 0.81773 -0.423584
vn 0.270766 -0.565425 -0.77909
vn 0.270766 -0.565425 -0.77909
vn 0.389736 0.81773 -0.423584
vn 0.688039 -0.579099 -0.437318
vn 0.270766 -0.565425 -0.77909
vn 0.688039 -0.579099 -0.437318
vn -0.389736 -0.81773 -0.423584
vn -0.155273 -0.324246 -0.933143
vn 0.270766 -0.565425 -0.77909
vn -0.389736 -0.81773 -0.423584
vn -0.270766 0.565425 -0.77909
vn -0.155273 -0.324246 -0.933143
vn -0.389736 -0.81773 -0.423584
vn -0.688039 0.579099 -0.437318
vn -0.270766 0.565425 -0.77909
vn -0.389736 -0.81773 -0.423584
vn 0.389736 0.81773 -0.423584
vn -0.270766 0.565425 -0.77909
vn -0.688039 0.579099 -0.437318
vn 0.155273 0.324246 -0.933143
vn -0.270766 0.565425 -0.77909
vn 0.389736 0.81773 -0.423584
vn 0.688039 -0.579099 -0.437318
vn 0.67082 0.707107 -0.223607
vn 0.3 -0.948683 -0.1
vn 0.389736 0.81773 -0.423584
vn 0.67082 0.707107 -0.223607
vn 0.688039 -0.579099 -0.437318
vn -0.389736 -0.81773 -0.423584
vn 0.3 -0.948683 -0.1
vn -0.686843 -0.711173 -0.149929
vn -0.389736 -0.81773 -0.423584
vn 0.688039 -0.579099 -0.437318
vn 0.3 -0.948683 -0.1
vn -0.592173 0.803305 -0.0635068
vn -0.688039 0.579099 -0.437318
vn -0.686843 -0.711173 -0.149929
vn -0.688039 0.579099 -0.437318
vn -0.389736 -0.81773 -0.423584
vn -0.686843 -0.711173 -0.149929
vn 0.67082 0.707107 -0.223607
vn 0.389736 0.81773 -0.423584
vn -0.592173 0.803305 -0.0635068
vn 0.389736 0.81773 -0.423584
vn -0.688039 0.579099 -0.437318
vn -0.592173 0.803305 -0.0635068
vn -0.699009 -0.711173 0.0749617
vn 0.526237 -0.83205 0.175406
vn 0.389726 -0.817732 0.423589
vn -0.699009 -0.711173 0.0749617
vn 0.389726 -0.817732 0.423589
vn -0.688036 -0.579102 0.437318
vn 0.23009 0.970143 0.0766939
vn 0.688036 0.579102 0.437318
vn 0.526237 -0.83205 0.175406
vn 0.526237 -0.83205 0.175406
vn 0.688036 0.579102 0.437318
vn 0.389726 -0.817732 0.423589
vn -0.810007 0.559132 0.176807
vn -0.699009 -0.711173 0.0749617
vn -0.688036 -0.579102 0.437318
vn -0.389726 0.817732 0.423589
vn -0.810007 0.559132 0.176807
vn -0.688036 -0.579102 0.437318
vn 0.23009 0.970143 0.0766939
vn -0.810007 0.559132 0.176807
vn -0.389726 0.817732 0.423589
vn 0.688036 0.579102 0.437318
vn 0.23009 0.970143 0.0766939
vn -0.389726 0.817732 0.423589
vn -0.688036 -0.579102 0.437318
vn 0.389726 -0.817732 0.423589
vn -0.219575 -0.458552 0.861114
vn 0.389726 -0.817732 0.423589
vn 0.219575 -0.458552 0.861114
vn -0.219575 -0.458552 0.861114
vn 0.389726 -0.817732 0.423589
vn 0.219575 0.458552 0.861114
vn 0.219575 -0.458552 0.861114
vn 0.688036 0.579102 0.437318
vn 0.219575 0.458552 0.861114
vn 0.389726 -0.817732 0.423589
vn -0.219575 0.458552 0.861114
vn -0.389726 0.817732 0.423589
vn -0.219575 -0.458552 0.861114
vn -0.389726 0.817732 0.423589
vn -0.688036 -0.579102 0.437318
vn -0.219575 -0.458552 0.861114
vn 0.688036 0.579102 0.437318
vn -0.389726 0.817732 0.423589
vn 0.219575 0.458552 0.861114
vn 0.219575 0.458552 0.861114
vn -0.389726 0.817732 0.423589
vn -0.219575 0.458552 0.861114
g barrier_advert
usemtl barrier_advert
s 1
f 5/16/1 17/17/2 18/16/3
f 6/17/4 17/17/5 5/16/6
f 23/3/7 12/1/8 24/1/9
f 23/3/10 11/3/11 12/1/12
f 10/10/13 16/12/14 22/10/15
f 10/10/16 4/12/17 16/12/18
f 21/11/19 22/10/20 16/12/21
f 15/13/22 21/11/23 16/12/24
f 9/11/25 21/11/26 15/13/27
f 3/13/28 9/11/29 15/13/30
f 20/7/31 23/3/32 24/1/33
f 20/7/34 24/1/35 19/6/36
f 24/1/37 8/6/38 19/6/39
f 12/1/40 8/6/41 24/1/42
f 11/3/43 8/6/44 12/1/45
f 11/3/46 7/7/47 8/6/48
f 7/7/49 11/3/50 20/7/51
f 11/3/52 23/3/53 20/7/54
f 21/11/55 19/6/56 22/10/57
f 21/11/58 20/7/59 19/6/60
f 8/6/61 10/10/62 22/10/63
f 19/6/64 8/6/65 22/10/66
f 7/7/67 9/11/68 10/10/69
f 7/7/70 10/10/71 8/6/72
f 9/11/73 20/7/74 21/11/75
f 9/11/76 7/7/77 20/7/78
f 4/12/79 14/14/80 16/12/81
f 4/12/82 2/14/83 14/14/84
f 13/15/85 15/13/86 16/12/87
f 14/14/88 13/15/89 16/12/90
f 4/12/91 3/13/92 2/14/93
f 3/13/94 1/15/95 2/14/96
f 1/15/97 3/13/98 15/13/99
f 13/15/100 1/15/101 15/13/102
f 2/14/103 5/16/104 14/14/105
f 5/16/106 18/16/107 14/14/108
f 18/16/109 17/17/110 14/14/111
f 17/17/112 13/15/113 14/14/114
f 1/15/115 6/17/116 5/16/117
f 2/14/118 1/15/119 5/16/120
f 17/17/121 1/15/122 13/15/123
f 6/17/124 1/15/125 17/17/126
f 36/22/127 35/23/128 30/22/129
f 35/23/130 29/23/131 30/22/132
f 47/3/133 48/2/134 45/2/135
f 46/3/136 47/3/137 45/2/138
f 44/8/139 34/18/140 40/8/141
f 34/18/142 28/18/143 40/8/144
f 28/18/145 39/9/146 40/8/147
f 27/19/148 39/9/149 28/18/150
f 33/19/151 43/9/152 39/9/153
f 27/19/154 33/19/155 39/9/156
f 47/3/157 41/5/158 48/2/159
f 41/5/160 42/4/161 48/2/162
f 42/4/163 38/4/164 48/2/165
f 48/2/166 38/4/167 45/2/168
f 38/4/169 46/3/170 45/2/171
f 37/5/172 46/3/173 38/4/174
f 37/5/175 41/5/176 46/3/177
f 41/5/178 47/3/179 46/3/180
f 43/9/181 44/8/182 42/4/183
f 41/5/184 43/9/185 42/4/186
f 44/8/187 40/8/188 38/4/189
f 42/4/190 44/8/191 38/4/192
f 39/9/193 37/5/194 40/8/195
f 40/8/196 37/5/197 38/4/198
f 39/9/199 43/9/200 41/5/201
f 39/9/202 41/5/203 37/5/204
f 34/18/205 32/20/206 28/18/207
f 32/20/208 26/20/209 28/18/210
f 33/19/211 31/21/212 34/18/213
f 31/21/214 32/20/215 34/18/216
f 26/20/217 27/19/218 28/18/219
f 25/21/220 27/19/221 26/20/222
f 25/21/223 33/19/224 27/19/225
f 25/21/226 31/21/227 33/19/228
f 32/20/229 30/22/230 26/20/231
f 36/22/232 30/22/233 32/20/234
f 35/23/235 36/22/236 32/20/237
f 31/21/238 35/23/239 32/20/240
f 29/23/241 25/21/242 30/22/243
f 30/22/244 25/21/245 26/20/246
f 35/23/247 31/21/248 25/21/249
f 29/23/250 35/23/251 25/21/252
f 65/17/253 66/16/254 53/16/255
f 54/17/256 65/17/257 53/16/258
f 72/1/259 71/3/260 60/1/261
f 71/3/262 59/3/263 60/1/264
f 64/12/265 70/10/266 58/10/267
f 64/12/268 58/10/269 52/12/270
f 69/11/271 70/10/272 64/12/273
f 63/13/274 69/11/275 64/12/276
f 69/11/277 63/13/278 57/11/279
f 63/13/280 51/13/281 57/11/282
f 68/7/283 71/3/284 72/1/285
f 67/6/286 68/7/287 72/1/288
f 67/6/289 72/1/290 56/6/291
f 72/1/292 60/1/293 56/6/294
f 60/1/295 59/3/296 56/6/297
f 59/3/298 55/7/299 56/6/300
f 59/3/301 68/7/302 55/7/303
f 71/3/304 68/7/305 59/3/306
f 70/10/307 69/11/308 67/6/309
f 69/11/310 68/7/311 67/6/312
f 70/10/313 56/6/314 58/10/315
f 70/10/316 67/6/317 56/6/318
f 55/7/319 57/11/320 58/10/321
f 56/6/322 55/7/323 58/10/324
f 68/7/325 69/11/326 57/11/327
f 55/7/328 68/7/329 57/11/330
f 62/14/331 64/12/332 52/12/333
f 50/14/334 62/14/335 52/12/336
f 61/15/337 63/13/338 64/12/339
f 61/15/340 64/12/341 62/14/342
f 51/13/343 50/14/344 52/12/345
f 51/13/346 49/15/347 50/14/348
f 63/13/349 49/15/350 51/13/351
f 63/13/352 61/15/353 49/15/354
f 53/16/355 62/14/356 50/14/357
f 66/16/358 62/14/359 53/16/360
f 65/17/361 62/14/362 66/16/363
f 65/17/364 61/15/365 62/14/366
f 49/15/367 54/17/368 53/16/369
f 49/15/370 53/16/371 50/14/372
f 61/15/373 65/17/374 49/15/375
f 65/17/376 54/17/377 49/15/378
f 84/22/379 83/23/380 78/22/381
f 83/23/382 77/23/383 78/22/384
f 95/3/385 96/2/386 93/2/387
f 94/3/388 95/3/389 93/2/390
f 88/8/391 92/8/392 82/18/393
f 88/8/394 82/18/395 76/18/396
f 87/9/397 88/8/398 76/18/399
f 75/19/400 87/9/401 76/18/402
f 91/9/403 87/9/404 81/19/405
f 81/19/406 87/9/407 75/19/408
f 95/3/409 89/5/410 96/2/411
f 96/2/412 89/5/413 90/4/414
f 96/2/415 90/4/416 86/4/417
f 93/2/418 96/2/419 86/4/420
f 94/3/421 93/2/422 86/4/423
f 85/5/424 94/3/425 86/4/426
f 89/5/427 94/3/428 85/5/429
f 95/3/430 94/3/431 89/5/432
f 90/4/433 91/9/434 92/8/435
f 89/5/436 91/9/437 90/4/438
f 86/4/439 92/8/440 88/8/441
f 86/4/442 90/4/443 92/8/444
f 87/9/445 85/5/446 88/8/447
f 85/5/448 86/4/449 88/8/450
f 91/9/451 89/5/452 87/9/453
f 89/5/454 85/5/455 87/9/456
f 76/18/457 82/18/458 80/20/459
f 76/18/460 80/20/461 74/20/462
f 81/19/463 79/21/464 82/18/465
f 82/18/466 79/21/467 80/20/468
f 75/19/469 76/18/470 74/20/471
f 73/21/472 75/19/473 74/20/474
f 81/19/475 75/19/476 73/21/477
f 79/21/478 81/19/479 73/21/480
f 74/20/481 80/20/482 78/22/483
f 80/20/484 84/22/485 78/22/486
f 80/20/487 83/23/488 84/22/489
f 79/21/490 83/23/491 80/20/492
f 77/23/493 73/21/494 78/22/495
f 73/21/496 74/20/497 78/22/498
f 79/21/499 73/21/500 83/23/501
f 83/23/502 73/21/503 77/23/504
