####
#
#	OBJ File Generated by LightWave3D
#	LightWave3D OBJ Export v2.3
#
####
o outer_floor_fake_shadows.obj
mtllib outer_floor_fake_shadows.mtl
g default
v -20 0 20
v 20 0 20
v 20 0 -20
v -20 0 -20
v 0 0 -0
vt 0.005 0.005
vt 0.005 0.995
vt 0.5 0.5
vt 0.995 0.005
vt 0.995 0.995
vn 0 1 -0
vn 0 1 -0
vn 0 1 -0
vn 0 1 -0
vn 0 1 -0
vn 0 1 -0
vn 0 1 -0
vn 0 1 -0
vn 0 1 -0
vn 0 1 -0
vn 0 1 -0
vn 0 1 -0
g outer_floor_sh
usemtl outer_floor_sh
s off
f 5/3/1 4/2/2 1/1/3
f 5/3/4 1/1/5 2/4/6
f 3/5/7 5/3/8 2/4/9
f 3/5/10 4/2/11 5/3/12
