####
#
#	OBJ File Generated by LightWave3D
#	LightWave3D OBJ Export v2.3
#
####
o stage_light_single_part_A.obj
mtllib stage_light_single_part_A.mtl
g default
v 0.0549998 1.18 -0.0500002
v 0.0549998 1.18 0.0550003
v -0.0549998 1.18 0.0550003
v -0.0549998 1.18 -0.0500002
v 0.0549998 0.714999 -0.0500002
v 0.0549998 0.714999 0.0550003
v -0.0549998 0.714999 -0.0500002
v -0.0549998 0.714999 0.0550003
v 0 0.62 -0.0500002
v 0 0.62 0.0550003
v 0.390555 0.714999 0.0550003
v 0.339445 0.62 0.0550003
v -0.390555 0.714999 0.0550003
v -0.339445 0.62 0.0550003
v 0.339445 0.62 -0.0500002
v 0.390555 0.714999 -0.0500002
v -0.390555 0.714999 -0.0500002
v -0.339445 0.62 -0.0500002
v 0.339445 -0.04 -0.0500002
v 0.390555 -0.04 -0.0500002
v 0.390555 -0.04 0.0550003
v 0.339445 -0.04 0.0550003
v -0.390555 -0.04 0.0550003
v -0.390555 -0.04 -0.0500002
v -0.339445 -0.04 -0.0500002
v -0.339445 -0.04 0.0550003
vt 0.341786 0.343024
vt 0.341786 0.467801
vt 0.341786 0.474114
vt 0.341786 0.0177737
vt 0.341786 0.0758354
vt 0.341786 0.117665
vt 0.341786 0.211868
vt 0.341786 0.218181
vt 0.341786 0.300647
vt 0.341786 0.385473
vt 0.341786 0.568301
vt 0.341786 0.610193
vt 0.341786 0.668246
vt 0.354347 0.0177737
vt 0.354347 0.0758354
vt 0.354347 0.117665
vt 0.354347 0.211868
vt 0.354347 0.218181
vt 0.354347 0.300647
vt 0.354347 0.343024
vt 0.354347 0.385473
vt 0.354347 0.467801
vt 0.354347 0.474114
vt 0.354347 0.568301
vt 0.354347 0.610193
vt 0.354347 0.668246
vt 0.376643 0.141603
vt 0.376643 0.330147
vt 0.376643 0.332644
vt 0.376643 0.521189
vt 0.388871 0.165327
vt 0.388871 0.330147
vt 0.388871 0.497465
vt 0.388872 0.332644
vt 0.456922 0.141603
vt 0.456923 0.0254793
vt 0.456923 0.521189
vt 0.456923 0.637313
vt 0.470081 0.165327
vt 0.470081 0.497465
vt 0.483239 0.0254793
vt 0.483239 0.521189
vt 0.483239 0.141603
vt 0.483239 0.637313
vt 0.551291 0.165327
vt 0.551291 0.330147
vt 0.551291 0.332644
vt 0.551291 0.497465
vt 0.563518 0.141603
vt 0.563518 0.330147
vt 0.563519 0.332644
vt 0.563519 0.521189
vn -0.333333 -0.666667 0.666667
vn 0.408248 -0.816497 -0.408248
vn 0.816497 -0.408248 0.408248
vn -0.666667 -0.333333 -0.666667
vn 0.408248 -0.816497 -0.408248
vn -0.333333 -0.666667 0.666667
vn -0.57735 -0.57735 0.57735
vn -0.666667 -0.666667 -0.333333
vn 0.57735 -0.57735 0.57735
vn -0.666667 -0.666667 -0.333333
vn 0.408248 -0.408248 -0.816497
vn 0.57735 -0.57735 0.57735
vn -0.666667 -0.333333 -0.666667
vn 0.436436 -0.218218 -0.872872
vn 0.408248 -0.816497 -0.408248
vn -0.333333 0.666667 -0.666667
vn 0.436436 -0.218218 -0.872872
vn -0.666667 -0.333333 -0.666667
vn -0.666667 -0.666667 -0.333333
vn -0.218218 -0.436436 -0.872872
vn 0.408248 -0.408248 -0.816497
vn -0.218218 -0.436436 -0.872872
vn 0.666667 0.333333 -0.666667
vn 0.408248 -0.408248 -0.816497
vn 0.408248 -0.816497 -0.408248
vn 0.436436 -0.218218 -0.872872
vn 0.816497 -0.408248 0.408248
vn 0.436436 -0.218218 -0.872872
vn 0.218218 -0.436436 0.872872
vn 0.816497 -0.408248 0.408248
vn 0.218218 -0.436436 0.872872
vn -0.333333 -0.666667 0.666667
vn 0.816497 -0.408248 0.408248
vn 0.218218 -0.436436 0.872872
vn -0.666667 0.333333 0.666667
vn -0.333333 -0.666667 0.666667
vn -0.666667 0.333333 0.666667
vn -0.666667 -0.333333 -0.666667
vn -0.333333 -0.666667 0.666667
vn -0.666667 0.333333 0.666667
vn -0.333333 0.666667 -0.666667
vn -0.666667 -0.333333 -0.666667
vn -0.436436 -0.218218 0.872872
vn -0.666667 -0.666667 -0.333333
vn -0.57735 -0.57735 0.57735
vn -0.436436 -0.218218 0.872872
vn -0.218218 -0.436436 -0.872872
vn -0.666667 -0.666667 -0.333333
vn -0.436436 -0.218218 0.872872
vn -0.57735 -0.57735 0.57735
vn 0.57735 -0.57735 0.57735
vn 0.333333 0.666667 0.666667
vn -0.436436 -0.218218 0.872872
vn 0.57735 -0.57735 0.57735
vn 0.408248 -0.408248 -0.816497
vn 0.666667 0.333333 -0.666667
vn 0.57735 -0.57735 0.57735
vn 0.666667 0.333333 -0.666667
vn 0.333333 0.666667 0.666667
vn 0.57735 -0.57735 0.57735
vn 0.436436 -0.218218 -0.872872
vn 0 -0.707107 -0.707107
vn 0.218218 -0.436436 0.872872
vn 0.218218 -0.436436 0.872872
vn 0 -0.707107 -0.707107
vn 0 -0.707107 0.707107
vn -0.218218 0.436436 0.872872
vn -0.666667 0.333333 0.666667
vn 0.218218 -0.436436 0.872872
vn -0.218218 0.436436 0.872872
vn 0.218218 -0.436436 0.872872
vn 0 -0.707107 0.707107
vn -0.333333 0.666667 -0.666667
vn -0.365148 0.182574 -0.912871
vn 0.436436 -0.218218 -0.872872
vn 0.436436 -0.218218 -0.872872
vn -0.365148 0.182574 -0.912871
vn 0 -0.707107 -0.707107
vn -0.333333 0.666667 -0.666667
vn -0.666667 0.333333 0.666667
vn -0.218218 0.436436 0.872872
vn -0.365148 0.182574 -0.912871
vn -0.333333 0.666667 -0.666667
vn -0.218218 0.436436 0.872872
vn 0 -0.707107 0.707107
vn -0.218218 -0.436436 -0.872872
vn -0.436436 -0.218218 0.872872
vn 0 -0.707107 -0.707107
vn -0.218218 -0.436436 -0.872872
vn 0 -0.707107 0.707107
vn 0.333333 0.666667 0.666667
vn 0.19245 0.19245 0.96225
vn -0.436436 -0.218218 0.872872
vn 0.19245 0.19245 0.96225
vn 0 -0.707107 0.707107
vn -0.436436 -0.218218 0.872872
vn 0.408248 0.408248 -0.816497
vn 0.666667 0.333333 -0.666667
vn -0.218218 -0.436436 -0.872872
vn 0 -0.707107 -0.707107
vn 0.408248 0.408248 -0.816497
vn -0.218218 -0.436436 -0.872872
vn 0.666667 0.333333 -0.666667
vn 0.408248 0.408248 -0.816497
vn 0.333333 0.666667 0.666667
vn 0.408248 0.408248 -0.816497
vn 0.19245 0.19245 0.96225
vn 0.333333 0.666667 0.666667
vn 0.19245 0.19245 0.96225
vn -0.218218 0.436436 0.872872
vn 0 -0.707107 0.707107
vn -0.365148 0.182574 -0.912871
vn 0.408248 0.408248 -0.816497
vn 0 -0.707107 -0.707107
vn -0.707107 0 0.707107
vn -0.365148 0.182574 -0.912871
vn -0.218218 0.436436 0.872872
vn -0.707107 0 0.707107
vn -0.707107 0 -0.707107
vn -0.365148 0.182574 -0.912871
vn -0.707107 0 0.707107
vn -0.218218 0.436436 0.872872
vn 0.19245 0.19245 0.96225
vn 0.894427 0 0.447214
vn -0.707107 0 0.707107
vn 0.19245 0.19245 0.96225
vn 0.408248 0.408248 -0.816497
vn 0.894427 0 0.447214
vn 0.19245 0.19245 0.96225
vn 0.447214 0 -0.894427
vn 0.894427 0 0.447214
vn 0.408248 0.408248 -0.816497
vn -0.365148 0.182574 -0.912871
vn 0.447214 0 -0.894427
vn 0.408248 0.408248 -0.816497
vn -0.707107 0 -0.707107
vn 0.447214 0 -0.894427
vn -0.365148 0.182574 -0.912871
g stage_light_single_PA
usemtl stage_light_single_PA
s 1
f 23/17/1 25/8/2 26/18/3
f 24/7/4 25/8/5 23/17/6
f 22/22/7 19/2/8 21/23/9
f 19/2/10 20/3/11 21/23/12
f 24/50/13 18/45/14 25/46/15
f 17/49/16 18/45/17 24/50/18
f 19/32/19 15/31/20 20/28/21
f 15/31/22 16/27/23 20/28/24
f 25/8/25 18/9/26 26/18/27
f 18/9/28 14/19/29 26/18/30
f 14/48/31 23/51/32 26/47/33
f 14/48/34 13/52/35 23/51/36
f 13/16/37 24/7/38 23/17/39
f 13/16/40 17/6/41 24/7/42
f 12/21/43 19/2/44 22/22/45
f 12/21/46 15/10/47 19/2/48
f 12/33/49 22/34/50 21/29/51
f 11/30/52 12/33/53 21/29/54
f 20/3/55 16/11/56 21/23/57
f 16/11/58 11/24/59 21/23/60
f 18/9/61 9/1/62 14/19/63
f 14/19/64 9/1/65 10/20/66
f 8/42/67 13/52/68 14/48/69
f 8/42/70 14/48/71 10/40/72
f 17/49/73 7/43/74 18/45/75
f 18/45/76 7/43/77 9/39/78
f 17/6/79 13/16/80 8/15/81
f 7/5/82 17/6/83 8/15/84
f 10/20/85 15/10/86 12/21/87
f 9/1/88 15/10/89 10/20/90
f 11/30/91 6/37/92 12/33/93
f 6/37/94 10/40/95 12/33/96
f 5/35/97 16/27/98 15/31/99
f 9/39/100 5/35/101 15/31/102
f 16/11/103 5/12/104 11/24/105
f 5/12/106 6/25/107 11/24/108
f 6/37/109 8/42/110 10/40/111
f 7/43/112 5/35/113 9/39/114
f 3/14/115 7/5/116 8/15/117
f 3/14/118 4/4/119 7/5/120
f 3/44/121 8/42/122 6/37/123
f 2/38/124 3/44/125 6/37/126
f 5/12/127 2/26/128 6/25/129
f 1/13/130 2/26/131 5/12/132
f 7/43/133 1/36/134 5/35/135
f 4/41/136 1/36/137 7/43/138
