####
#
#	OBJ File Generated by LightWave3D
#	LightWave3D OBJ Export v2.3
#
####
o corner_rigid_body.obj
mtllib corner_rigid_body.mtl
g default
v -0.017678 -1.1 0.689429
v -0.406586 -1.1 0.300521
v -1.29893e-017 -1.1 -0.106066
v 0.654074 -1.1 -0.76014
v 1.04298 -1.1 -0.371231
v 0.388909 -1.1 0.282843
v -0.017678 1.125 0.689429
v -0.406586 1.125 0.300521
v -1.29893e-017 1.125 -0.106066
v 0.654074 1.125 -0.76014
v 1.04298 1.125 -0.371231
v 0.388909 1.125 0.282843
v -1.06066 -1.1 -0.353553
v -1.06066 1.125 -0.353553
v -0.654074 1.125 -0.76014
v -0.654074 -1.1 -0.76014
vt 0 0.719512
vt 0.193277 1
vt 0.310925 0.268292
vt 0.495799 0
vt 0.504202 0.54878
vt 0.689077 0.280488
vt 0.815127 1
vt 1 0.731707
vn -5.16191e-007 -0.57735 0.816497
vn 0.424264 -0.8 0.424264
vn -5.96046e-007 0.333333 0.942809
vn -0.565685 -0.6 0.565685
vn 0.154303 -0.872872 -0.46291
vn 0.424264 -0.8 0.424264
vn 0.424264 -0.8 0.424264
vn 0.154303 -0.872872 -0.46291
vn 1.6174e-006 -0.577351 -0.816496
vn 0.424264 -0.8 0.424264
vn 1.6174e-006 -0.577351 -0.816496
vn 0.866026 -0.408247 0.288674
vn -5.16191e-007 -0.57735 0.816497
vn -5.96046e-007 0.333333 0.942809
vn -0.565685 -0.6 0.565685
vn -0.565685 -0.6 0.565685
vn -5.96046e-007 0.333333 0.942809
vn -0.392232 0.83205 0.392232
vn -0.577351 -0.816496 3.89336e-007
vn -0.816497 0.57735 5.50604e-007
vn -0.288676 -0.408248 -0.866025
vn -0.288676 -0.408248 -0.866025
vn -0.816497 0.57735 5.50604e-007
vn 0.288675 0.408248 -0.866025
vn 0.154303 -0.872872 -0.46291
vn -0.154303 0.872872 -0.46291
vn 1.6174e-006 -0.577351 -0.816496
vn 1.6174e-006 -0.577351 -0.816496
vn -0.154303 0.872872 -0.46291
vn 1.14367e-006 0.816497 -0.577349
vn 0.866026 -0.408247 0.288674
vn 1.6174e-006 -0.577351 -0.816496
vn 0.866027 0.408247 -0.288673
vn 1.6174e-006 -0.577351 -0.816496
vn 1.14367e-006 0.816497 -0.577349
vn 0.866027 0.408247 -0.288673
vn 0.424264 -0.8 0.424264
vn 0.866026 -0.408247 0.288674
vn 0.424265 0.8 0.424264
vn 0.866026 -0.408247 0.288674
vn 0.866027 0.408247 -0.288673
vn 0.424265 0.8 0.424264
vn -5.16191e-007 -0.57735 0.816497
vn -0.565685 -0.6 0.565685
vn 0.424264 -0.8 0.424264
vn 0.424264 -0.8 0.424264
vn 0.424265 0.8 0.424264
vn -5.96046e-007 0.333333 0.942809
vn -5.96046e-007 0.333333 0.942809
vn 0.424265 0.8 0.424264
vn -0.392232 0.83205 0.392232
vn -0.392232 0.83205 0.392232
vn 0.424265 0.8 0.424264
vn -0.154303 0.872872 -0.46291
vn 0.424265 0.8 0.424264
vn 0.866027 0.408247 -0.288673
vn 1.14367e-006 0.816497 -0.577349
vn 0.424265 0.8 0.424264
vn 1.14367e-006 0.816497 -0.577349
vn -0.154303 0.872872 -0.46291
vn 0.154303 -0.872872 -0.46291
vn -0.577351 -0.816496 3.89336e-007
vn -0.288676 -0.408248 -0.866025
vn -0.565685 -0.6 0.565685
vn -0.577351 -0.816496 3.89336e-007
vn 0.154303 -0.872872 -0.46291
vn -0.565685 -0.6 0.565685
vn -0.816497 0.57735 5.50604e-007
vn -0.577351 -0.816496 3.89336e-007
vn -0.565685 -0.6 0.565685
vn -0.392232 0.83205 0.392232
vn -0.816497 0.57735 5.50604e-007
vn -0.392232 0.83205 0.392232
vn -0.154303 0.872872 -0.46291
vn -0.816497 0.57735 5.50604e-007
vn -0.154303 0.872872 -0.46291
vn 0.288675 0.408248 -0.866025
vn -0.816497 0.57735 5.50604e-007
vn 0.154303 -0.872872 -0.46291
vn -0.288676 -0.408248 -0.866025
vn 0.288675 0.408248 -0.866025
vn 0.154303 -0.872872 -0.46291
vn 0.288675 0.408248 -0.866025
vn -0.154303 0.872872 -0.46291
g Material__1
usemtl Material__1
s off
f 1/4/1 6/6/2 7/4/3
f 2/3/4 3/5/5 6/6/6
f 6/6/7 3/5/8 4/7/9
f 6/6/10 4/7/11 5/8/12
f 1/4/13 7/4/14 2/3/15
f 2/3/16 7/4/17 8/3/18
f 13/1/19 14/1/20 16/2/21
f 16/2/22 14/1/23 15/2/24
f 3/5/25 9/5/26 4/7/27
f 4/7/28 9/5/29 10/7/30
f 5/8/31 4/7/32 11/8/33
f 4/7/34 10/7/35 11/8/36
f 6/6/37 5/8/38 12/6/39
f 5/8/40 11/8/41 12/6/42
f 1/4/43 2/3/44 6/6/45
f 6/6/46 12/6/47 7/4/48
f 7/4/49 12/6/50 8/3/51
f 8/3/52 12/6/53 9/5/54
f 12/6/55 11/8/56 10/7/57
f 12/6/58 10/7/59 9/5/60
f 3/5/61 13/1/62 16/2/63
f 2/3/64 13/1/65 3/5/66
f 2/3/67 14/1/68 13/1/69
f 2/3/70 8/3/71 14/1/72
f 8/3/73 9/5/74 14/1/75
f 9/5/76 15/2/77 14/1/78
f 3/5/79 16/2/80 15/2/81
f 3/5/82 15/2/83 9/5/84
