####
#
#	OBJ File Generated by LightWave3D
#	LightWave3D OBJ Export v2.3
#
####
o base_static_body.obj
mtllib base_static_body.mtl
g default
v -20 0 20
v 20 0 20
v 20 0 -20
v -20 0 -20
v -8 2 8
v 8 2 8
v 8 2 -8
v -8 2 -8
v -8 0 -8
v 8 0 -8
v 8 0 8
v -8 0 8
vt 0 0
vt 0 1
vt 0.3 0.3
vt 0.3 0.7
vt 0.7 0.3
vt 0.7 0.7
vt 1 0
vt 1 1
vn -0.408248 0.816497 0.408248
vn -0.436436 0.872872 -0.218218
vn 0 1 -0
vn -0.436436 0.872872 -0.218218
vn 0 1 -0
vn 0 1 -0
vn 0.267261 0.801784 0.534522
vn -0.408248 0.816497 0.408248
vn 0 1 -0
vn 0.267261 0.801784 0.534522
vn 0 1 -0
vn 0 1 -0
vn 0.485071 0.727607 -0.485071
vn 0.267261 0.801784 0.534522
vn 0 1 -0
vn 0 1 -0
vn 0.485071 0.727607 -0.485071
vn 0 1 -0
vn 0 1 -0
vn -0.436436 0.872872 -0.218218
vn 0.485071 0.727607 -0.485071
vn 0 1 -0
vn 0 1 -0
vn -0.436436 0.872872 -0.218218
vn -0.666667 0.333333 0.666667
vn -0.408248 0.816497 0.408248
vn 0.267261 0.801784 0.534522
vn 0.666667 0.666667 0.333333
vn -0.666667 0.333333 0.666667
vn 0.267261 0.801784 0.534522
vn 0.485071 0.727607 -0.485071
vn 0.666667 0.666667 0.333333
vn 0.267261 0.801784 0.534522
vn 0.57735 0.57735 -0.57735
vn 0.666667 0.666667 0.333333
vn 0.485071 0.727607 -0.485071
vn -0.333333 0.666667 -0.666667
vn 0.485071 0.727607 -0.485071
vn -0.436436 0.872872 -0.218218
vn -0.333333 0.666667 -0.666667
vn 0.57735 0.57735 -0.57735
vn 0.485071 0.727607 -0.485071
vn -0.666667 0.333333 0.666667
vn -0.436436 0.872872 -0.218218
vn -0.408248 0.816497 0.408248
vn -0.666667 0.333333 0.666667
vn -0.333333 0.666667 -0.666667
vn -0.436436 0.872872 -0.218218
vn -0.333333 0.666667 -0.666667
vn -0.666667 0.333333 0.666667
vn 0.666667 0.666667 0.333333
vn 0.57735 0.57735 -0.57735
vn -0.333333 0.666667 -0.666667
vn 0.666667 0.666667 0.333333
g Default
usemtl Default
s 1
f 12/3/1 9/4/2 1/1/3
f 9/4/4 4/2/5 1/1/6
f 11/5/7 12/3/8 1/1/9
f 11/5/10 1/1/11 2/7/12
f 10/6/13 11/5/14 2/7/15
f 3/8/16 10/6/17 2/7/18
f 3/8/19 9/4/20 10/6/21
f 3/8/22 4/2/23 9/4/24
f 5/3/25 12/3/26 11/5/27
f 6/5/28 5/3/29 11/5/30
f 10/6/31 6/5/32 11/5/33
f 7/6/34 6/5/35 10/6/36
f 8/4/37 10/6/38 9/4/39
f 8/4/40 7/6/41 10/6/42
f 5/3/43 9/4/44 12/3/45
f 5/3/46 8/4/47 9/4/48
f 8/4/49 5/3/50 6/5/51
f 7/6/52 8/4/53 6/5/54
