####
#
#	OBJ File Generated by LightWave3D
#	LightWave3D OBJ Export v2.3
#
####
o ropes_static_body.obj
mtllib ropes_static_body.mtl
g default
v -7.4 0 7.4
v -7.4 0 -7.4
v 7.4 0 -7.4
v 7.4 0 7.4
v -7.4 4.5 7.4
v -7.4 4.5 -7.4
v 7.4 4.5 -7.4
v 7.4 4.5 7.4
v -6.96 4.5 6.96
v -6.96 4.5 -6.96
v 6.96 4.5 -6.96
v 6.96 4.5 6.96
v -6.96 0 6.96
v -6.96 0 -6.96
v 6.96 0 -6.96
v 6.96 0 6.96
vt 0.315 0.315
vt 0.315 0.685
vt 0.326 0.326
vt 0.326 0.674
vt 0.674 0.326
vt 0.674 0.674
vt 0.685 0.315
vt 0.685 0.685
vn 0.57735 0.57735 0.57735
vn -0.218218 -0.872872 0.436436
vn 0.301511 -0.904534 0.301511
vn 0.57735 0.57735 0.57735
vn -0.534522 0.801784 0.267261
vn -0.218218 -0.872872 0.436436
vn -0.534522 0.801784 0.267261
vn -0.666667 -0.666667 -0.333333
vn -0.218218 -0.872872 0.436436
vn -0.534522 0.801784 0.267261
vn -0.267261 0.801784 -0.534522
vn -0.666667 -0.666667 -0.333333
vn -0.267261 0.801784 -0.534522
vn 0.485071 -0.727607 -0.485071
vn -0.666667 -0.666667 -0.333333
vn -0.267261 0.801784 -0.534522
vn 0.235702 0.942809 -0.235702
vn 0.485071 -0.727607 -0.485071
vn 0.485071 -0.727607 -0.485071
vn 0.57735 0.57735 0.57735
vn 0.301511 -0.904534 0.301511
vn 0.235702 0.942809 -0.235702
vn 0.57735 0.57735 0.57735
vn 0.485071 -0.727607 -0.485071
vn -0.436436 0.872872 -0.218218
vn -0.534522 0.801784 0.267261
vn 0.57735 0.57735 0.57735
vn -0.436436 0.872872 -0.218218
vn 0.485071 0.727607 -0.485071
vn -0.534522 0.801784 0.267261
vn 0.485071 0.727607 -0.485071
vn -0.267261 0.801784 -0.534522
vn -0.534522 0.801784 0.267261
vn 0.301511 0.904534 0.301511
vn -0.267261 0.801784 -0.534522
vn 0.485071 0.727607 -0.485071
vn 0.235702 0.942809 -0.235702
vn 0.301511 0.904534 0.301511
vn -0.333333 0.666667 0.666667
vn 0.235702 0.942809 -0.235702
vn -0.267261 0.801784 -0.534522
vn 0.301511 0.904534 0.301511
vn 0.235702 0.942809 -0.235702
vn -0.436436 0.872872 -0.218218
vn 0.57735 0.57735 0.57735
vn 0.235702 0.942809 -0.235702
vn -0.333333 0.666667 0.666667
vn -0.436436 0.872872 -0.218218
vn 0.485071 0.727607 -0.485071
vn -0.267261 -0.801784 -0.534522
vn 0.408248 -0.816497 -0.408248
vn 0.485071 0.727607 -0.485071
vn -0.436436 0.872872 -0.218218
vn -0.267261 -0.801784 -0.534522
vn 0.408248 -0.816497 0.408248
vn 0.485071 0.727607 -0.485071
vn 0.408248 -0.816497 -0.408248
vn 0.301511 0.904534 0.301511
vn 0.485071 0.727607 -0.485071
vn 0.408248 -0.816497 0.408248
vn -0.333333 0.666667 0.666667
vn 0.408248 -0.816497 0.408248
vn -0.534522 -0.801784 0.267261
vn -0.333333 0.666667 0.666667
vn 0.301511 0.904534 0.301511
vn 0.408248 -0.816497 0.408248
vn -0.436436 0.872872 -0.218218
vn -0.534522 -0.801784 0.267261
vn -0.267261 -0.801784 -0.534522
vn -0.436436 0.872872 -0.218218
vn -0.333333 0.666667 0.666667
vn -0.534522 -0.801784 0.267261
vn 0.408248 -0.816497 -0.408248
vn -0.267261 -0.801784 -0.534522
vn -0.218218 -0.872872 0.436436
vn -0.267261 -0.801784 -0.534522
vn 0.301511 -0.904534 0.301511
vn -0.218218 -0.872872 0.436436
vn -0.267261 -0.801784 -0.534522
vn -0.534522 -0.801784 0.267261
vn 0.301511 -0.904534 0.301511
vn -0.534522 -0.801784 0.267261
vn 0.485071 -0.727607 -0.485071
vn 0.301511 -0.904534 0.301511
vn 0.485071 -0.727607 -0.485071
vn -0.534522 -0.801784 0.267261
vn 0.408248 -0.816497 0.408248
vn -0.666667 -0.666667 -0.333333
vn 0.485071 -0.727607 -0.485071
vn 0.408248 -0.816497 0.408248
vn 0.408248 -0.816497 0.408248
vn 0.408248 -0.816497 -0.408248
vn -0.218218 -0.872872 0.436436
vn -0.666667 -0.666667 -0.333333
vn 0.408248 -0.816497 0.408248
vn -0.218218 -0.872872 0.436436
g Default
usemtl Default
s 1
f 8/7/1 1/1/2 4/7/3
f 8/7/4 5/1/5 1/1/6
f 5/1/7 2/2/8 1/1/9
f 5/1/10 6/2/11 2/2/12
f 6/2/13 3/8/14 2/2/15
f 6/2/16 7/8/17 3/8/18
f 3/8/19 8/7/20 4/7/21
f 7/8/22 8/7/23 3/8/24
f 12/5/25 5/1/26 8/7/27
f 12/5/28 9/3/29 5/1/30
f 9/3/31 6/2/32 5/1/33
f 10/4/34 6/2/35 9/3/36
f 7/8/37 10/4/38 11/6/39
f 7/8/40 6/2/41 10/4/42
f 7/8/43 12/5/44 8/7/45
f 7/8/46 11/6/47 12/5/48
f 9/3/49 16/5/50 13/3/51
f 9/3/52 12/5/53 16/5/54
f 14/4/55 9/3/56 13/3/57
f 10/4/58 9/3/59 14/4/60
f 11/6/61 14/4/62 15/6/63
f 11/6/64 10/4/65 14/4/66
f 12/5/67 15/6/68 16/5/69
f 12/5/70 11/6/71 15/6/72
f 13/3/73 16/5/74 1/1/75
f 16/5/76 4/7/77 1/1/78
f 16/5/79 15/6/80 4/7/81
f 15/6/82 3/8/83 4/7/84
f 3/8/85 15/6/86 14/4/87
f 2/2/88 3/8/89 14/4/90
f 14/4/91 13/3/92 1/1/93
f 2/2/94 14/4/95 1/1/96
